<svg xmlns="http://www.w3.org/2000/svg" viewBox="0 0 485 120">
  <g fill="none" fill-rule="evenodd">
    <path fill="#5468FF" d="M15.8005,-0.001 L104.2005,-0.001 C112.9005,-0.001 120.0005,7.064 120.0005,15.799 L120.0005,104.204 C120.0005,112.904 112.9355,119.999 104.2005,119.999 L15.8005,119.999 C7.1005,119.999 0.0005,112.939 0.0005,104.204 L0.0005,15.759 C0.0005,7.064 7.0605,-0.001 15.8005,-0.001"/>
    <path fill="#FFFFFF" d="M72.5045,26.7885 L72.5045,22.6735 C72.5045,19.7985 70.1695,17.4685 67.2945,17.4685 L55.1495,17.4685 C52.2745,17.4685 49.9395,19.7985 49.9395,22.6735 L49.9395,26.8985 C49.9395,27.3685 50.3745,27.6985 50.8495,27.5885 C54.2395,26.6035 57.8145,26.0985 61.4195,26.0985 C64.8845,26.0985 68.3145,26.5685 71.6295,27.4785 C72.0695,27.5885 72.5045,27.2635 72.5045,26.7885 M39.2195,32.1735 L37.1445,30.0985 C35.1045,28.0635 31.8195,28.0635 29.7795,30.0985 L27.2995,32.5735 C25.2595,34.6135 25.2595,37.8885 27.2995,39.9285 L29.3395,41.9685 C29.6695,42.2935 30.1445,42.2185 30.4345,41.8935 C31.6395,40.2535 32.9495,38.6885 34.4095,37.2335 C35.9045,35.7435 37.4345,34.4335 39.1095,33.2335 C39.4745,33.0135 39.5095,32.5035 39.2195,32.1735 M61.3845,45.2385 L61.3845,63.0385 C61.3845,63.5485 61.9345,63.9135 62.4045,63.6585 L78.2295,55.4685 C78.5895,55.2885 78.6995,54.8485 78.5195,54.4885 C75.2395,48.7335 69.1495,44.8035 62.1145,44.5485 C61.7495,44.5485 61.3845,44.8385 61.3845,45.2385 M61.3845,88.1185 C48.1895,88.1185 37.4695,77.4135 37.4695,64.2385 C37.4695,51.0635 48.1895,40.3635 61.3845,40.3635 C74.5845,40.3635 85.2995,51.0635 85.2995,64.2385 C85.2995,77.4135 74.6195,88.1185 61.3845,88.1185 M61.3845,30.3185 C42.6445,30.3185 27.4445,45.4985 27.4445,64.2385 C27.4445,82.9835 42.6445,98.1285 61.3845,98.1285 C80.1245,98.1285 95.3245,82.9485 95.3245,64.2035 C95.3245,45.4585 80.1595,30.3185 61.3845,30.3185"/>
    <path fill="#5468FF" d="M239.2135,95.1774766 C215.8485,95.287 215.8485,76.322 215.8485,73.302 L215.8085,2.257 L230.0635,-0.003 L230.0635,70.607 C230.0635,72.322 230.0635,83.167 239.2135,83.202 L239.2135,95.1774766 Z M181.4335,83.567 C185.8085,83.567 189.0535,83.312 191.3135,82.877 L191.3135,68.392 C190.5085,68.172 189.3785,67.917 187.8835,67.697 C186.3935,67.477 184.7485,67.332 182.9285,67.332 C181.3585,67.332 179.7535,67.442 178.1535,67.697 C176.5485,67.917 175.0885,68.352 173.8135,68.972 C172.5385,69.592 171.4785,70.467 170.7135,71.592 C169.9135,72.722 169.5485,73.377 169.5485,75.087 C169.5485,78.432 170.7135,80.367 172.8285,81.637 C174.9435,82.912 177.8235,83.567 181.4335,83.567 Z M180.1935,31.882 C184.8935,31.882 188.8685,32.467 192.0785,33.632 C195.2835,34.797 197.8735,36.432 199.7685,38.507 C201.7035,40.617 203.0135,43.422 203.8135,46.407 C204.6535,49.392 205.0535,52.667 205.0535,56.267 L205.0535,92.887 C202.8685,93.357 199.5485,93.902 195.1035,94.557 C190.6585,95.212 185.6635,95.542 180.1185,95.542 C176.4385,95.542 173.0485,95.177 170.0235,94.487 C166.9585,93.797 164.3735,92.667 162.1835,91.102 C160.0335,89.537 158.3585,87.532 157.1185,85.062 C155.9135,82.582 155.2935,79.092 155.2935,75.452 C155.2935,71.957 155.9835,69.737 157.3385,67.332 C158.7185,64.932 160.5785,62.967 162.9135,61.437 C165.2835,59.907 167.9785,58.817 171.0785,58.162 C174.1785,57.507 177.4235,57.177 180.7735,57.177 C182.3435,57.177 183.9835,57.287 185.7335,57.467 C187.4485,57.652 189.3085,57.982 191.2785,58.452 L191.2785,56.122 C191.2785,54.487 191.0935,52.922 190.6935,51.467 C190.2885,49.972 189.5985,48.702 188.6485,47.572 C187.6635,46.442 186.3935,45.567 184.7885,44.952 C183.1835,44.332 181.1385,43.857 178.6985,43.857 C175.4185,43.857 172.4285,44.257 169.6935,44.732 C166.9585,45.202 164.6985,45.752 162.9835,46.367 L161.2735,34.687 C163.0585,34.067 165.7185,33.447 169.1485,32.832 C172.5735,32.172 176.2585,31.882 180.1935,31.882 Z M461.7035,83.167 C466.0785,83.167 469.3185,82.912 471.5785,82.472 L471.5785,67.992 C470.7785,67.772 469.6485,67.517 468.1535,67.297 C466.6585,67.077 465.0185,66.932 463.1935,66.932 C461.6285,66.932 460.0235,67.042 458.4185,67.297 C456.8185,67.517 455.3585,67.952 454.0835,68.572 C452.8035,69.192 451.7485,70.067 450.9835,71.192 C450.1785,72.322 449.8185,72.977 449.8185,74.687 C449.8185,78.032 450.9835,79.967 453.0985,81.237 C455.2485,82.547 458.0935,83.167 461.7035,83.167 Z M460.4985,31.522 C465.1985,31.522 469.1735,32.102 472.3835,33.267 C475.5885,34.432 478.1785,36.067 480.0735,38.142 C481.9685,40.217 483.3185,43.057 484.1185,46.042 C484.9585,49.027 485.3585,52.302 485.3585,55.907 L485.3585,92.522 C483.1735,92.992 479.8535,93.537 475.4085,94.197 C470.9635,94.852 465.9685,95.177 460.4235,95.177 C456.7435,95.177 453.3535,94.812 450.3285,94.122 C447.2635,93.432 444.6785,92.302 442.4885,90.737 C440.3385,89.172 438.6635,87.167 437.4235,84.697 C436.2185,82.222 435.5985,78.727 435.5985,75.087 C435.5985,71.592 436.2935,69.372 437.6435,66.967 C439.0235,64.567 440.8835,62.602 443.2185,61.072 C445.5885,59.547 448.2835,58.452 451.3835,57.797 C454.4835,57.142 457.7285,56.817 461.0835,56.817 C462.6485,56.817 464.2885,56.927 466.0385,57.107 C467.7885,57.287 469.6135,57.617 471.5785,58.092 L471.5785,55.762 C471.5785,54.122 471.3985,52.557 470.9985,51.102 C470.5935,49.607 469.9035,48.332 468.9535,47.207 C467.9685,46.077 466.6985,45.202 465.0935,44.587 C463.4885,43.967 461.4435,43.497 459.0035,43.497 C455.7235,43.497 452.7335,43.897 449.9985,44.367 C447.2635,44.842 445.0035,45.387 443.2885,46.007 L441.5785,34.322 C443.3635,33.702 446.0235,33.087 449.4535,32.467 C452.8785,31.847 456.5585,31.522 460.4985,31.522 Z M417.6985,24.752 C422.4735,24.752 426.3785,20.892 426.3785,16.122 C426.3785,11.357 422.5135,7.497 417.6985,7.497 C412.8885,7.497 409.0235,11.357 409.0235,16.122 C409.0235,20.892 412.9235,24.752 417.6985,24.752 Z M424.8785,95.177 L410.5535,95.177 L410.5535,33.737 L424.8785,31.482 L424.8785,95.177 Z M399.7635,95.1774766 C376.3985,95.287 376.3985,76.322 376.3985,73.302 L376.3585,2.257 L390.6135,-0.003 L390.6135,70.607 C390.6135,72.322 390.6135,83.167 399.7635,83.202 L399.7635,95.1774766 Z M353.4285,63.732 C353.4285,57.577 352.0785,52.447 349.4535,48.882 C346.8285,45.277 343.1485,43.497 338.4435,43.497 C333.7435,43.497 330.0585,45.277 327.4385,48.882 C324.8135,52.482 323.5335,57.577 323.5335,63.732 C323.5335,69.957 324.8485,74.137 327.4735,77.742 C330.0985,81.382 333.7785,83.167 338.4835,83.167 C343.1835,83.167 346.8685,81.347 349.4935,77.742 C352.1185,74.102 353.4285,69.957 353.4285,63.732 Z M368.0085,63.697 C368.0085,68.502 367.3185,72.137 365.8935,76.107 C364.4735,80.072 362.4685,83.457 359.8835,86.262 C357.2935,89.062 354.1935,91.247 350.5485,92.777 C346.9035,94.302 341.2885,95.177 338.4835,95.177 C335.6735,95.142 330.0985,94.342 326.4885,92.777 C322.8785,91.212 319.7785,89.062 317.1935,86.262 C314.6035,83.457 312.5985,80.072 311.1385,76.107 C309.6835,72.137 308.9535,68.502 308.9535,63.697 C308.9535,58.892 309.6085,54.267 311.0685,50.337 C312.5285,46.407 314.5685,43.057 317.1935,40.257 C319.8185,37.452 322.9535,35.302 326.5235,33.777 C330.1335,32.247 334.1085,31.522 338.4085,31.522 C342.7135,31.522 346.6835,32.282 350.3285,33.777 C353.9785,35.302 357.1135,37.452 359.6635,40.257 C362.2485,43.057 364.2535,46.407 365.7135,50.337 C367.2435,54.267 368.0085,58.892 368.0085,63.697 Z M260.7235,63.697 C260.7235,69.662 262.0335,76.287 264.6585,79.052 C267.2835,81.822 270.6735,83.202 274.8335,83.202 C277.0935,83.202 279.2435,82.877 281.2485,82.257 C283.2535,81.637 284.8535,80.907 286.1335,80.037 L286.1335,44.697 C285.1135,44.477 280.8485,43.602 276.7235,43.497 C271.5485,43.347 267.6135,45.462 264.8435,48.842 C262.1085,52.232 260.7235,58.162 260.7235,63.697 Z M300.3485,91.792 C300.3485,101.512 297.8685,108.607 292.8735,113.122 C287.8835,117.632 280.2635,119.892 269.9835,119.892 C266.2285,119.892 258.4285,119.162 252.1935,117.782 L254.4885,106.497 C259.7035,107.587 266.5935,107.882 270.2035,107.882 C275.9235,107.882 280.0085,106.717 282.4485,104.387 C284.8935,102.057 286.0935,98.602 286.0935,94.012 L286.0935,91.682 C284.6735,92.372 282.8135,93.067 280.5185,93.797 C278.2235,94.487 275.5635,94.852 272.5685,94.852 C268.6335,94.852 265.0585,94.232 261.8185,92.992 C258.5735,91.757 255.7635,89.937 253.4685,87.532 C251.1735,85.132 249.3485,82.112 248.0735,78.507 C246.7985,74.902 246.1385,68.462 246.1385,63.732 C246.1385,59.292 246.8335,53.722 248.1835,50.007 C249.5685,46.297 251.5335,43.092 254.1985,40.437 C256.8235,37.782 260.0335,35.742 263.7885,34.247 C267.5435,32.757 271.9485,31.812 276.7235,31.812 C281.3585,31.812 285.6235,32.392 289.7785,33.087 C293.9335,33.777 297.4685,34.502 300.3485,35.302 L300.3485,91.792 Z"/>
  </g>
</svg>
